<svg xmlns="http://www.w3.org/2000/svg" width="54.505" height="58.699" viewBox="0 0 54.505 58.699"><defs><style>.a{fill:#1e6fa2;}</style></defs><g transform="translate(-18.276)"><path class="a" d="M71.537,9.63a4.028,4.028,0,0,0-2.948-1.245H64.4V5.241a5.047,5.047,0,0,0-1.54-3.7A5.048,5.048,0,0,0,59.155,0h-2.1a5.046,5.046,0,0,0-3.7,1.54,5.046,5.046,0,0,0-1.54,3.7V8.386H39.24V5.241a5.047,5.047,0,0,0-1.54-3.7A5.046,5.046,0,0,0,34,0H31.9a5.047,5.047,0,0,0-3.7,1.54,5.047,5.047,0,0,0-1.54,3.7V8.386H22.469a4.029,4.029,0,0,0-2.948,1.245,4.03,4.03,0,0,0-1.245,2.948V54.506A4.251,4.251,0,0,0,22.469,58.7H68.588a4.252,4.252,0,0,0,4.193-4.192V12.579A4.03,4.03,0,0,0,71.537,9.63ZM56.011,5.241a1.007,1.007,0,0,1,1.047-1.048h2.1A1.008,1.008,0,0,1,60.2,5.241v9.433a1.008,1.008,0,0,1-1.048,1.048h-2.1a1.007,1.007,0,0,1-1.047-1.048Zm-25.157,0A1.009,1.009,0,0,1,31.9,4.193H34a1.009,1.009,0,0,1,1.048,1.048v9.433A1.009,1.009,0,0,1,34,15.723H31.9a1.009,1.009,0,0,1-1.048-1.048ZM68.588,54.506H22.469V20.964H68.588Z" transform="translate(0 0)"/></g></svg>