<svg xmlns="http://www.w3.org/2000/svg" width="58.477" height="46.781" viewBox="0 0 58.477 46.781"><defs><style>.a{fill:#1e6fa2;}</style></defs><g transform="translate(0 -54.821)"><g transform="translate(0 54.821)"><path class="a" d="M57.045,56.252A4.692,4.692,0,0,0,53.6,54.821H4.873a4.694,4.694,0,0,0-3.442,1.431A4.692,4.692,0,0,0,0,59.694V96.728a4.692,4.692,0,0,0,1.431,3.442A4.694,4.694,0,0,0,4.873,101.6H53.6a4.888,4.888,0,0,0,4.873-4.873V59.694A4.693,4.693,0,0,0,57.045,56.252ZM54.578,96.729a.986.986,0,0,1-.974.974H4.873a.988.988,0,0,1-.974-.975V78.211H54.578V96.729Zm0-30.214H3.9V59.693a.987.987,0,0,1,.974-.974H53.6a.987.987,0,0,1,.974.974v6.822Z" transform="translate(0 -54.821)"/><rect class="a" width="7.797" height="3.899" transform="translate(7.797 35.085)"/><rect class="a" width="11.695" height="3.899" transform="translate(19.492 35.085)"/></g></g></svg>