<svg xmlns="http://www.w3.org/2000/svg" width="62.351" height="41.956" viewBox="0 0 62.351 41.956"><defs><style>.a{fill:#1e6fa2;}</style></defs><path class="a" d="M59.9,56.94a1.743,1.743,0,0,1-.046.52L56.006,72.844a1.749,1.749,0,0,1-1.687,1.324l-23.076.117H8.158a1.748,1.748,0,0,1-1.7-1.326L2.616,57.517a1.745,1.745,0,0,1-.046-.534A3.673,3.673,0,1,1,6,56.315l4.815,4.851a6.535,6.535,0,0,0,9.85-.666l7.913-10.485a3.673,3.673,0,1,1,5.246-.062l.007.008L41.69,60.476A6.557,6.557,0,0,0,46.919,63.1a6.485,6.485,0,0,0,4.616-1.912l4.845-4.845a3.671,3.671,0,1,1,3.518.6ZM55.63,79.762a1.748,1.748,0,0,0-1.748-1.748H8.663a1.748,1.748,0,0,0-1.748,1.748v4.2a1.748,1.748,0,0,0,1.748,1.748H53.882a1.748,1.748,0,0,0,1.748-1.748Z" transform="translate(0 -43.75)"/></svg>