<svg xmlns="http://www.w3.org/2000/svg" width="53.017" height="53" viewBox="0 0 53.017 53"><defs><style>.a{fill:#fff;}</style></defs><path class="a" d="M52.246,3.3,49.728.778A2.642,2.642,0,0,0,46,.779L43.238,3.541H0V53.009H49.468V9.8l.269-.269h0l2.508-2.508A2.64,2.64,0,0,0,52.246,3.3ZM17.709,32.473l2.844,2.844-3.912,1.067ZM45.99,10.783,42.242,7.036l1.249-1.249L47.24,9.534Zm-1.249,1.249L22.254,34.519l-3.747-3.747L40.993,8.285ZM47.7,11.57V51.242H1.767V5.307h39.7L16.633,30.148l-.166.166-1.874,6.872L13.51,38.268a.883.883,0,1,0,1.249,1.249l1.083-1.083,6.872-1.875L45.991,13.282h0l.395-.395ZM51,5.777,48.489,8.285,44.741,4.537l2.508-2.508a.872.872,0,0,1,1.231,0L51,4.547A.871.871,0,0,1,51,5.777Z" transform="translate(0 -0.009)"/></svg>