<svg xmlns="http://www.w3.org/2000/svg" width="55.035" height="72.357" viewBox="0 0 55.035 72.357"><defs><style>.a{fill:#1e6fa2;}</style></defs><g transform="translate(-41.895)"><path class="a" d="M119.1,35.388c8.045,0,14.567-7.922,14.567-17.694S131.528,0,119.1,0s-14.568,7.922-14.568,17.694S111.057,35.388,119.1,35.388Z" transform="translate(-49.69)"/><path class="a" d="M41.9,300.678c0-.6,0-.168,0,0Z" transform="translate(0 -238.274)"/><path class="a" d="M308.085,302.027c.008-.163,0-1.132,0,0Z" transform="translate(-211.159 -239.158)"/><path class="a" d="M96.905,202.684c-.27-17.023-2.493-21.874-19.506-24.944,0,0-2.395,3.052-7.977,3.052s-7.977-3.052-7.977-3.052c-16.827,3.037-19.186,7.816-19.5,24.391-.025,1.354-.037,1.425-.042,1.268,0,.294,0,.839,0,1.788,0,0,4.05,8.165,27.512,8.165s27.512-8.165,27.512-8.165c0-.61,0-1.034,0-1.323A10.96,10.96,0,0,1,96.905,202.684Z" transform="translate(-0.01 -140.995)"/></g></svg>